
  <svg
    width="1000"
    height="1000"
    viewBox="0 0 1000 1000"
    xmlns="http://www.w3.org/2000/svg"
  >
    <defs>
      <clipPath id="shape">
        <path fill="currentColor" d="M779,577Q654,654,577,780.5Q500,907,419.5,784Q339,661,180.5,580.5Q22,500,138.5,377.5Q255,255,377.5,151Q500,47,660.5,113Q821,179,862.5,339.5Q904,500,779,577Z"></path>
      </clipPath>
    </defs>
  
    

    <g  clip-path="url(#shape)">
      <path fill="#FFD062" d="M779,577Q654,654,577,780.5Q500,907,419.5,784Q339,661,180.5,580.5Q22,500,138.5,377.5Q255,255,377.5,151Q500,47,660.5,113Q821,179,862.5,339.5Q904,500,779,577Z" />
    </g>

    
  
  </svg>