  <svg
    width="500px"
    height="500px"
    viewBox="0 0 1000 1000"
    xmlns="http://www.w3.org/2000/svg"
  >
   <defs>
      <clipPath id="shape">
        <path fill="currentColor" d="M832,634Q869,768,754,848Q639,928,513.5,885.5Q388,843,259.5,805.5Q131,768,94.5,634Q58,500,127.5,390Q197,280,278,172.5Q359,65,476,139Q593,213,702.5,243.5Q812,274,803.5,387Q795,500,832,634Z"></path>
      </clipPath>
    </defs>
    <g  clip-path="url(#shape)">
      <path fill="#ffd062" d="M832,634Q869,768,754,848Q639,928,513.5,885.5Q388,843,259.5,805.5Q131,768,94.5,634Q58,500,127.5,390Q197,280,278,172.5Q359,65,476,139Q593,213,702.5,243.5Q812,274,803.5,387Q795,500,832,634Z" />
    </g>
  </svg>
